{
    "patcher": {
        "fileversion": 1,
        "appversion": {
            "major": 9,
            "minor": 1,
            "revision": 2,
            "architecture": "x64",
            "modernui": 1
        },
        "classnamespace": "box",
        "rect": [ 0.0, 0.0, 1000.0, 699.2 ],
        "boxes": [
            {
                "box": {
                    "id": "obj-59",
                    "maxclass": "number",
                    "numinlets": 1,
                    "numoutlets": 2,
                    "outlettype": [ "", "bang" ],
                    "parameter_enable": 0,
                    "patching_rect": [ 932.8467103242874, 599.9999967813492, 50.0, 22.0 ]
                }
            },
            {
                "box": {
                    "format": 6,
                    "id": "obj-57",
                    "maxclass": "flonum",
                    "maximum": 1.0,
                    "minimum": 0.0,
                    "numinlets": 1,
                    "numoutlets": 2,
                    "outlettype": [ "", "bang" ],
                    "parameter_enable": 0,
                    "patching_rect": [ 932.8467103242874, 549.6350335478783, 50.0, 22.0 ]
                }
            },
            {
                "box": {
                    "id": "obj-53",
                    "maxclass": "comment",
                    "numinlets": 1,
                    "numoutlets": 0,
                    "patching_rect": [ 917.4999781250954, 526.042550444603, 150.0, 20.0 ],
                    "text": "resonance"
                }
            },
            {
                "box": {
                    "id": "obj-51",
                    "maxclass": "comment",
                    "numinlets": 1,
                    "numoutlets": 0,
                    "patching_rect": [ 917.4999781250954, 629.0948870182037, 150.0, 20.0 ],
                    "text": "freq cutoff"
                }
            },
            {
                "box": {
                    "id": "obj-42",
                    "maxclass": "newobj",
                    "numinlets": 3,
                    "numoutlets": 1,
                    "outlettype": [ "signal" ],
                    "patching_rect": [ 810.2189737558365, 474.4525521993637, 42.0, 22.0 ],
                    "text": "lores~"
                }
            },
            {
                "box": {
                    "id": "obj-41",
                    "maxclass": "newobj",
                    "numinlets": 1,
                    "numoutlets": 1,
                    "outlettype": [ "" ],
                    "patching_rect": [ 418.97809994220734, 135.76642262935638, 32.0, 22.0 ],
                    "text": "mtof"
                }
            },
            {
                "box": {
                    "id": "obj-38",
                    "maxclass": "kslider",
                    "numinlets": 2,
                    "numoutlets": 2,
                    "outlettype": [ "int", "int" ],
                    "parameter_enable": 0,
                    "patching_rect": [ 503.88829439878464, 95.62043744325638, 336.0, 53.0 ]
                }
            },
            {
                "box": {
                    "id": "obj-35",
                    "maxclass": "spectroscope~",
                    "numinlets": 2,
                    "numoutlets": 1,
                    "outlettype": [ "" ],
                    "patching_rect": [ 747.4999781250954, 651.0948870182037, 300.0, 100.0 ]
                }
            },
            {
                "box": {
                    "id": "obj-34",
                    "maxclass": "comment",
                    "numinlets": 1,
                    "numoutlets": 0,
                    "patching_rect": [ 522.6277344226837, 183.21167784929276, 150.0, 20.0 ],
                    "text": "fundamental pitch"
                }
            },
            {
                "box": {
                    "id": "obj-32",
                    "maxclass": "number",
                    "numinlets": 1,
                    "numoutlets": 2,
                    "outlettype": [ "", "bang" ],
                    "parameter_enable": 0,
                    "patching_rect": [ 424.8175159692764, 186.86131286621094, 50.0, 22.0 ]
                }
            },
            {
                "box": {
                    "id": "obj-30",
                    "maxclass": "newobj",
                    "numinlets": 2,
                    "numoutlets": 1,
                    "outlettype": [ "int" ],
                    "patching_rect": [ 702.8244631886482, 262.0437942147255, 29.5, 22.0 ],
                    "text": "* 5"
                }
            },
            {
                "box": {
                    "id": "obj-29",
                    "maxclass": "newobj",
                    "numinlets": 2,
                    "numoutlets": 1,
                    "outlettype": [ "int" ],
                    "patching_rect": [ 596.350361764431, 262.0437942147255, 29.5, 22.0 ],
                    "text": "* 4"
                }
            },
            {
                "box": {
                    "id": "obj-28",
                    "maxclass": "newobj",
                    "numinlets": 2,
                    "numoutlets": 1,
                    "outlettype": [ "int" ],
                    "patching_rect": [ 503.88829439878464, 262.0437942147255, 29.5, 22.0 ],
                    "text": "* 3"
                }
            },
            {
                "box": {
                    "id": "obj-27",
                    "maxclass": "newobj",
                    "numinlets": 2,
                    "numoutlets": 1,
                    "outlettype": [ "int" ],
                    "patching_rect": [ 407.11169934272766, 262.0437942147255, 29.5, 22.0 ],
                    "text": "* 2"
                }
            },
            {
                "box": {
                    "automatic": 1,
                    "id": "obj-25",
                    "maxclass": "scope~",
                    "numinlets": 2,
                    "numoutlets": 0,
                    "patching_rect": [ 917.4999781250954, 394.04255044460297, 130.0, 130.0 ]
                }
            },
            {
                "box": {
                    "id": "obj-24",
                    "maxclass": "ezdac~",
                    "numinlets": 2,
                    "numoutlets": 0,
                    "patching_rect": [ 814.5985357761383, 565.6934276223183, 45.0, 45.0 ]
                }
            },
            {
                "box": {
                    "id": "obj-22",
                    "maxclass": "newobj",
                    "numinlets": 1,
                    "numoutlets": 1,
                    "outlettype": [ "signal" ],
                    "patching_rect": [ 803.3333141803741, 327.12765723466873, 76.0, 22.0 ],
                    "text": "receive~ mix"
                }
            },
            {
                "box": {
                    "id": "obj-21",
                    "maxclass": "newobj",
                    "numinlets": 1,
                    "numoutlets": 0,
                    "patching_rect": [ 542.5531876087189, 555.3191449642181, 64.0, 22.0 ],
                    "text": "send~ mix"
                }
            },
            {
                "box": {
                    "id": "obj-20",
                    "maxclass": "comment",
                    "numinlets": 1,
                    "numoutlets": 0,
                    "patching_rect": [ 331.3829763531685, 434.0425500869751, 39.36170184612274, 20.0 ],
                    "text": "gain~"
                }
            },
            {
                "box": {
                    "id": "obj-16",
                    "maxclass": "gain~",
                    "multichannelvariant": 0,
                    "numinlets": 1,
                    "numoutlets": 2,
                    "outlettype": [ "signal", "" ],
                    "parameter_enable": 0,
                    "patching_rect": [ 706.5744631886482, 384.04255044460297, 22.0, 140.0 ]
                }
            },
            {
                "box": {
                    "id": "obj-15",
                    "maxclass": "gain~",
                    "multichannelvariant": 0,
                    "numinlets": 1,
                    "numoutlets": 2,
                    "outlettype": [ "signal", "" ],
                    "parameter_enable": 0,
                    "patching_rect": [ 607.1063787937164, 384.04255044460297, 22.0, 140.0 ]
                }
            },
            {
                "box": {
                    "id": "obj-14",
                    "maxclass": "gain~",
                    "multichannelvariant": 0,
                    "numinlets": 1,
                    "numoutlets": 2,
                    "outlettype": [ "signal", "" ],
                    "parameter_enable": 0,
                    "patching_rect": [ 507.63829439878464, 384.04255044460297, 22.0, 140.0 ]
                }
            },
            {
                "box": {
                    "id": "obj-13",
                    "maxclass": "gain~",
                    "multichannelvariant": 0,
                    "numinlets": 1,
                    "numoutlets": 2,
                    "outlettype": [ "signal", "" ],
                    "parameter_enable": 0,
                    "patching_rect": [ 410.86169934272766, 384.04255044460297, 22.0, 140.0 ]
                }
            },
            {
                "box": {
                    "id": "obj-12",
                    "maxclass": "newobj",
                    "numinlets": 3,
                    "numoutlets": 1,
                    "outlettype": [ "signal" ],
                    "patching_rect": [ 684.5744631886482, 327.12765723466873, 59.0, 22.0 ],
                    "text": "rect~ 880"
                }
            },
            {
                "box": {
                    "id": "obj-11",
                    "maxclass": "newobj",
                    "numinlets": 2,
                    "numoutlets": 1,
                    "outlettype": [ "signal" ],
                    "patching_rect": [ 585.1063787937164, 327.12765723466873, 60.0, 22.0 ],
                    "text": "saw~ 440"
                }
            },
            {
                "box": {
                    "id": "obj-10",
                    "maxclass": "newobj",
                    "numinlets": 3,
                    "numoutlets": 1,
                    "outlettype": [ "signal" ],
                    "patching_rect": [ 485.63829439878464, 327.12765723466873, 49.0, 22.0 ],
                    "text": "tri~ 220"
                }
            },
            {
                "box": {
                    "id": "obj-9",
                    "maxclass": "newobj",
                    "numinlets": 2,
                    "numoutlets": 1,
                    "outlettype": [ "signal" ],
                    "patching_rect": [ 389.36169934272766, 327.12765723466873, 65.0, 22.0 ],
                    "text": "cycle~ 110"
                }
            }
        ],
        "lines": [
            {
                "patchline": {
                    "destination": [ "obj-14", 0 ],
                    "source": [ "obj-10", 0 ]
                }
            },
            {
                "patchline": {
                    "destination": [ "obj-15", 0 ],
                    "source": [ "obj-11", 0 ]
                }
            },
            {
                "patchline": {
                    "destination": [ "obj-16", 0 ],
                    "source": [ "obj-12", 0 ]
                }
            },
            {
                "patchline": {
                    "destination": [ "obj-21", 0 ],
                    "source": [ "obj-13", 0 ]
                }
            },
            {
                "patchline": {
                    "destination": [ "obj-21", 0 ],
                    "source": [ "obj-14", 0 ]
                }
            },
            {
                "patchline": {
                    "destination": [ "obj-21", 0 ],
                    "source": [ "obj-15", 0 ]
                }
            },
            {
                "patchline": {
                    "destination": [ "obj-21", 0 ],
                    "source": [ "obj-16", 0 ]
                }
            },
            {
                "patchline": {
                    "destination": [ "obj-42", 0 ],
                    "source": [ "obj-22", 0 ]
                }
            },
            {
                "patchline": {
                    "destination": [ "obj-9", 0 ],
                    "source": [ "obj-27", 0 ]
                }
            },
            {
                "patchline": {
                    "destination": [ "obj-10", 0 ],
                    "source": [ "obj-28", 0 ]
                }
            },
            {
                "patchline": {
                    "destination": [ "obj-11", 0 ],
                    "source": [ "obj-29", 0 ]
                }
            },
            {
                "patchline": {
                    "destination": [ "obj-12", 0 ],
                    "source": [ "obj-30", 0 ]
                }
            },
            {
                "patchline": {
                    "destination": [ "obj-27", 0 ],
                    "order": 3,
                    "source": [ "obj-32", 0 ]
                }
            },
            {
                "patchline": {
                    "destination": [ "obj-28", 0 ],
                    "order": 2,
                    "source": [ "obj-32", 0 ]
                }
            },
            {
                "patchline": {
                    "destination": [ "obj-29", 0 ],
                    "order": 1,
                    "source": [ "obj-32", 0 ]
                }
            },
            {
                "patchline": {
                    "destination": [ "obj-30", 0 ],
                    "order": 0,
                    "source": [ "obj-32", 0 ]
                }
            },
            {
                "patchline": {
                    "destination": [ "obj-41", 0 ],
                    "source": [ "obj-38", 0 ]
                }
            },
            {
                "patchline": {
                    "destination": [ "obj-32", 0 ],
                    "source": [ "obj-41", 0 ]
                }
            },
            {
                "patchline": {
                    "destination": [ "obj-24", 1 ],
                    "order": 1,
                    "source": [ "obj-42", 0 ]
                }
            },
            {
                "patchline": {
                    "destination": [ "obj-24", 0 ],
                    "order": 2,
                    "source": [ "obj-42", 0 ]
                }
            },
            {
                "patchline": {
                    "destination": [ "obj-25", 0 ],
                    "order": 0,
                    "source": [ "obj-42", 0 ]
                }
            },
            {
                "patchline": {
                    "destination": [ "obj-35", 0 ],
                    "order": 3,
                    "source": [ "obj-42", 0 ]
                }
            },
            {
                "patchline": {
                    "destination": [ "obj-42", 2 ],
                    "source": [ "obj-57", 0 ]
                }
            },
            {
                "patchline": {
                    "destination": [ "obj-42", 1 ],
                    "source": [ "obj-59", 0 ]
                }
            },
            {
                "patchline": {
                    "destination": [ "obj-13", 0 ],
                    "source": [ "obj-9", 0 ]
                }
            }
        ],
        "parameters": {
            "parameterbanks": {
                "0": {
                    "index": 0,
                    "name": "",
                    "parameters": [ "-", "-", "-", "-", "-", "-", "-", "-" ],
                    "buttons": [ "-", "-", "-", "-", "-", "-", "-", "-" ]
                }
            },
            "inherited_shortname": 1
        },
        "autosave": 0
    }
}